<?xml version="1.0" encoding="UTF-8" standalone="no"?>
<!-- Created with Inkscape (http://www.inkscape.org/) -->

<svg
   xmlns:dc="http://purl.org/dc/elements/1.1/"
   xmlns:cc="http://creativecommons.org/ns#"
   xmlns:rdf="http://www.w3.org/1999/02/22-rdf-syntax-ns#"
   xmlns:svg="http://www.w3.org/2000/svg"
   xmlns="http://www.w3.org/2000/svg"
   xmlns:sodipodi="http://sodipodi.sourceforge.net/DTD/sodipodi-0.dtd"
   xmlns:inkscape="http://www.inkscape.org/namespaces/inkscape"
   width="830.93451"
   height="374.47253"
   id="svg2"
   version="1.1"
   inkscape:version="0.48.4 r9939"
   sodipodi:docname="final-plateau4-2.svg"
   inkscape:export-filename="/home/guicho/Dropbox/FukunagaLabShare/qiita-graphsearch-adventcalender/dijkstra-taco.png"
   inkscape:export-xdpi="45"
   inkscape:export-ydpi="45">
  <defs
     id="defs4">
    <marker
       inkscape:stockid="Arrow1Send"
       orient="auto"
       refY="0"
       refX="0"
       id="Arrow1Send"
       style="overflow:visible">
      <path
         id="path6182"
         d="M 0,0 5,-5 -12.5,0 5,5 0,0 z"
         style="fill-rule:evenodd;stroke:#000000;stroke-width:1pt"
         transform="matrix(-0.2,0,0,-0.2,-1.2,0)"
         inkscape:connector-curvature="0" />
    </marker>
    <marker
       inkscape:stockid="Arrow1Mend"
       orient="auto"
       refY="0"
       refX="0"
       id="Arrow1Mend"
       style="overflow:visible">
      <path
         id="path6106"
         d="M 0,0 5,-5 -12.5,0 5,5 0,0 z"
         style="fill-rule:evenodd;stroke:#000000;stroke-width:1pt"
         transform="matrix(-0.4,0,0,-0.4,-4,0)"
         inkscape:connector-curvature="0" />
    </marker>
    <marker
       inkscape:stockid="Arrow1Lstart"
       orient="auto"
       refY="0"
       refX="0"
       id="Arrow1Lstart"
       style="overflow:visible">
      <path
         id="path14925"
         d="M 0,0 5,-5 -12.5,0 5,5 0,0 z"
         style="fill-rule:evenodd;stroke:#000000;stroke-width:1pt"
         transform="matrix(0.8,0,0,0.8,10,0)"
         inkscape:connector-curvature="0" />
    </marker>
    <marker
       inkscape:stockid="Arrow1Lend"
       orient="auto"
       refY="0"
       refX="0"
       id="Arrow1Lend"
       style="overflow:visible">
      <path
         id="path14928"
         d="M 0,0 5,-5 -12.5,0 5,5 0,0 z"
         style="fill-rule:evenodd;stroke:#000000;stroke-width:1pt"
         transform="matrix(-0.8,0,0,-0.8,-10,0)"
         inkscape:connector-curvature="0" />
    </marker>
    <marker
       inkscape:stockid="Arrow1Lstart"
       orient="auto"
       refY="0"
       refX="0"
       id="Arrow1Lstart-7"
       style="overflow:visible">
      <path
         inkscape:connector-curvature="0"
         id="path14925-5"
         d="M 0,0 5,-5 -12.5,0 5,5 0,0 z"
         style="fill-rule:evenodd;stroke:#000000;stroke-width:1pt"
         transform="matrix(0.8,0,0,0.8,10,0)" />
    </marker>
    <marker
       inkscape:stockid="Arrow1Lend"
       orient="auto"
       refY="0"
       refX="0"
       id="Arrow1Lend-5"
       style="overflow:visible">
      <path
         inkscape:connector-curvature="0"
         id="path14928-5"
         d="M 0,0 5,-5 -12.5,0 5,5 0,0 z"
         style="fill-rule:evenodd;stroke:#000000;stroke-width:1pt"
         transform="matrix(-0.8,0,0,-0.8,-10,0)" />
    </marker>
    <marker
       inkscape:stockid="Arrow1Lend"
       orient="auto"
       refY="0"
       refX="0"
       id="Arrow1Lend-2"
       style="overflow:visible">
      <path
         inkscape:connector-curvature="0"
         id="path14928-0"
         d="M 0,0 5,-5 -12.5,0 5,5 0,0 z"
         style="fill-rule:evenodd;stroke:#000000;stroke-width:1pt"
         transform="matrix(-0.8,0,0,-0.8,-10,0)" />
    </marker>
    <marker
       inkscape:stockid="Arrow1Lend"
       orient="auto"
       refY="0"
       refX="0"
       id="Arrow1Lend-58"
       style="overflow:visible">
      <path
         inkscape:connector-curvature="0"
         id="path14928-9"
         d="M 0,0 5,-5 -12.5,0 5,5 0,0 z"
         style="fill-rule:evenodd;stroke:#000000;stroke-width:1pt"
         transform="matrix(-0.8,0,0,-0.8,-10,0)" />
    </marker>
    <marker
       inkscape:stockid="Arrow1Lend"
       orient="auto"
       refY="0"
       refX="0"
       id="Arrow1Lend-6"
       style="overflow:visible">
      <path
         inkscape:connector-curvature="0"
         id="path14928-6"
         d="M 0,0 5,-5 -12.5,0 5,5 0,0 z"
         style="fill-rule:evenodd;stroke:#000000;stroke-width:1pt"
         transform="matrix(-0.8,0,0,-0.8,-10,0)" />
    </marker>
    <marker
       inkscape:stockid="Arrow1Send"
       orient="auto"
       refY="0"
       refX="0"
       id="Arrow1Send-0"
       style="overflow:visible">
      <path
         inkscape:connector-curvature="0"
         id="path6182-1"
         d="M 0,0 5,-5 -12.5,0 5,5 0,0 z"
         style="fill-rule:evenodd;stroke:#000000;stroke-width:1pt"
         transform="matrix(-0.2,0,0,-0.2,-1.2,0)" />
    </marker>
    <marker
       inkscape:stockid="Arrow1Send"
       orient="auto"
       refY="0"
       refX="0"
       id="Arrow1Send-8"
       style="overflow:visible">
      <path
         inkscape:connector-curvature="0"
         id="path6182-0"
         d="M 0,0 5,-5 -12.5,0 5,5 0,0 z"
         style="fill-rule:evenodd;stroke:#000000;stroke-width:1pt"
         transform="matrix(-0.2,0,0,-0.2,-1.2,0)" />
    </marker>
    <marker
       inkscape:stockid="Arrow1Send"
       orient="auto"
       refY="0"
       refX="0"
       id="Arrow1Send-6"
       style="overflow:visible">
      <path
         inkscape:connector-curvature="0"
         id="path6182-6"
         d="M 0,0 5,-5 -12.5,0 5,5 0,0 z"
         style="fill-rule:evenodd;stroke:#000000;stroke-width:1pt"
         transform="matrix(-0.2,0,0,-0.2,-1.2,0)" />
    </marker>
    <marker
       inkscape:stockid="Arrow1Send"
       orient="auto"
       refY="0"
       refX="0"
       id="Arrow1Send-61"
       style="overflow:visible">
      <path
         inkscape:connector-curvature="0"
         id="path6182-18"
         d="M 0,0 5,-5 -12.5,0 5,5 0,0 z"
         style="fill-rule:evenodd;stroke:#000000;stroke-width:1pt"
         transform="matrix(-0.2,0,0,-0.2,-1.2,0)" />
    </marker>
    <clipPath
       clipPathUnits="userSpaceOnUse"
       id="clipPath7097-2">
      <path
         style="fill:#0197fd;stroke:#000000;stroke-width:1px;stroke-linecap:butt;stroke-linejoin:miter;stroke-opacity:1"
         d="m 345.93601,293.92555 c -92.44529,0 -390.062499,15.77521 -390.062499,196.15625 0,0 1.142534,179.1875 398.906249,179.1875 140.72072,0 377.875,-40.49576 377.875,-190.4375 0,-149.94175 -294.27347,-184.90625 -386.71875,-184.90625 z M 334.65476,429.1443 c 2.61158,0.008 5.24633,0.0273 7.90625,0.0625 170.23461,2.25476 244.65625,51.875 244.65625,51.875 0,0 -72.14515,51.84375 -240.125,51.84375 -167.97985,0 -245.78125,-50.71875 -245.78125,-50.71875 0,0 68.81414,-53.54043 233.34375,-53.0625 z"
         id="path7099-7"
         inkscape:connector-curvature="0" />
    </clipPath>
    <clipPath
       clipPathUnits="userSpaceOnUse"
       id="clipPath7967">
      <path
         style="fill:#ffff99;stroke:#000000;stroke-width:1px;stroke-linecap:butt;stroke-linejoin:miter;stroke-opacity:1"
         d="m 345.93601,293.92555 c -92.44529,0 -390.062499,15.77521 -390.062499,196.15625 0,0 1.142534,179.1875 398.906249,179.1875 140.72072,0 377.875,-40.4958 377.875,-190.4375 0,-149.94175 -294.27347,-184.90625 -386.71875,-184.90625 z M 334.65476,429.1443 c 2.61158,0.008 5.24633,0.0273 7.90625,0.0625 170.23461,2.25476 244.65625,51.875 244.65625,51.875 0,0 -72.14515,51.84375 -240.125,51.84375 -167.97985,0 -245.78125,-50.71875 -245.78125,-50.71875 0,0 68.81414,-53.54043 233.34375,-53.0625 z"
         id="path7969"
         inkscape:connector-curvature="0" />
    </clipPath>
    <marker
       inkscape:stockid="Arrow1Send"
       orient="auto"
       refY="0"
       refX="0"
       id="Arrow1Send-4"
       style="overflow:visible">
      <path
         id="path6182-8"
         d="M 0,0 5,-5 -12.5,0 5,5 0,0 z"
         style="fill-rule:evenodd;stroke:#000000;stroke-width:1pt"
         transform="matrix(-0.2,0,0,-0.2,-1.2,0)"
         inkscape:connector-curvature="0" />
    </marker>
  </defs>
  <sodipodi:namedview
     id="base"
     pagecolor="#ffffff"
     bordercolor="#666666"
     borderopacity="1.0"
     inkscape:pageopacity="0.0"
     inkscape:pageshadow="2"
     inkscape:zoom="0.88701117"
     inkscape:cx="389.46929"
     inkscape:cy="169.94874"
     inkscape:document-units="in"
     inkscape:current-layer="layer3"
     showgrid="false"
     fit-margin-top="0"
     fit-margin-left="0"
     fit-margin-right="0"
     fit-margin-bottom="0"
     inkscape:snap-center="true"
     inkscape:snap-global="false"
     inkscape:window-width="1440"
     inkscape:window-height="818"
     inkscape:window-x="768"
     inkscape:window-y="25"
     inkscape:window-maximized="1"
     units="in" />
  <metadata
     id="metadata7">
    <rdf:RDF>
      <cc:Work
         rdf:about="">
        <dc:format>image/svg+xml</dc:format>
        <dc:type
           rdf:resource="http://purl.org/dc/dcmitype/StillImage" />
        <dc:title></dc:title>
      </cc:Work>
    </rdf:RDF>
  </metadata>
  <g
     inkscape:groupmode="layer"
     id="layer3"
     inkscape:label="Layer#1"
     style="display:inline"
     transform="translate(41.868474,-294.87515)">
    <text
       xml:space="preserve"
       style="font-size:18.15288353px;font-style:italic;font-variant:normal;font-weight:normal;font-stretch:normal;text-indent:0;text-align:center;text-decoration:none;line-height:125%;letter-spacing:normal;word-spacing:normal;text-transform:none;direction:ltr;block-progression:tb;writing-mode:lr-tb;text-anchor:middle;baseline-shift:baseline;color:#000000;fill:#ffffff;fill-opacity:1;fill-rule:evenodd;stroke:#000000;stroke-width:1.81528819;stroke-linecap:butt;stroke-linejoin:miter;stroke-miterlimit:4;stroke-opacity:1;stroke-dasharray:none;stroke-dashoffset:0;marker:none;visibility:visible;display:inline;overflow:visible;enable-background:accumulate;font-family:Times New Roman;-inkscape-font-specification:'Times New Roman, Italic'"
       x="310.19476"
       y="398.79453"
       id="text16302"
       sodipodi:linespacing="125%"><tspan
         sodipodi:role="line"
         id="tspan16304"
         x="310.19476"
         y="398.79453"
         style="stroke-width:1.81528819" /></text>
    <path
       sodipodi:type="arc"
       style="color:#000000;fill:none;stroke:#0197fd;stroke-width:2.20229483;stroke-linecap:butt;stroke-linejoin:miter;stroke-miterlimit:4;stroke-opacity:1;stroke-dasharray:none;stroke-dashoffset:0;marker:none;visibility:visible;display:inline;overflow:visible;enable-background:accumulate"
       id="path6605-2"
       sodipodi:cx="507.8663"
       sodipodi:cy="193.60768"
       sodipodi:rx="62.869865"
       sodipodi:ry="62.869865"
       d="m 570.73617,193.60768 c 0,34.72207 -28.1478,62.86987 -62.86987,62.86987 -34.72207,0 -62.86986,-28.1478 -62.86986,-62.86987 0,-34.72207 28.14779,-62.86986 62.86986,-62.86986 34.72207,0 62.86987,28.14779 62.86987,62.86986 z"
       transform="matrix(2.9731518,0,0,1.369196,-1222.7165,216.38071)" />
    <path
       sodipodi:type="arc"
       style="color:#000000;fill:#d9bb7a;stroke:none;stroke-width:4.44336653;marker:none;visibility:visible;display:inline;overflow:visible;enable-background:accumulate"
       id="path6605-2-8"
       sodipodi:cx="507.8663"
       sodipodi:cy="193.60768"
       sodipodi:rx="90.143982"
       sodipodi:ry="90.143982"
       d="m 598.01028,193.60768 c 0,49.78515 -40.35883,90.14398 -90.14398,90.14398 -49.78514,0 -90.14398,-40.35883 -90.14398,-90.14398 0,-49.78515 40.35884,-90.14398 90.14398,-90.14398 49.78515,0 90.14398,40.35883 90.14398,90.14398 z"
       transform="matrix(3.4949123,0,0,1.6094772,-1376.2289,170.97123)" />
    <path
       sodipodi:type="arc"
       style="color:#000000;fill:none;stroke:#0197fd;stroke-width:84.76673126;stroke-linecap:butt;stroke-linejoin:miter;stroke-miterlimit:4;stroke-opacity:1;stroke-dasharray:none;stroke-dashoffset:0;marker:none;visibility:visible;display:inline;overflow:visible;enable-background:accumulate"
       id="path6605-2-8-3"
       sodipodi:cx="507.8663"
       sodipodi:cy="193.60768"
       sodipodi:rx="121.45871"
       sodipodi:ry="121.45871"
       d="m 629.32501,193.60768 c 0,67.07979 -54.37891,121.45871 -121.45871,121.45871 -67.07979,0 -121.45871,-54.37892 -121.45871,-121.45871 0,-67.07979 54.37892,-121.458708 121.45871,-121.458708 67.0798,0 121.45871,54.378918 121.45871,121.458708 z"
       transform="matrix(2.6305225,0,0,0.98100222,-990.23734,292.18185)" />
    <text
       xml:space="preserve"
       style="font-size:24px;font-style:normal;font-variant:normal;font-weight:bold;font-stretch:normal;text-indent:0;text-align:start;text-decoration:none;line-height:125%;letter-spacing:normal;word-spacing:normal;text-transform:none;direction:ltr;block-progression:tb;writing-mode:lr-tb;text-anchor:start;baseline-shift:baseline;opacity:0.89830508;color:#000000;fill:#0197fd;fill-opacity:1;fill-rule:evenodd;stroke:none;stroke-width:76.31999969;marker:none;visibility:visible;display:inline;overflow:visible;enable-background:accumulate;font-family:Nimbus Sans L;-inkscape-font-specification:Nimbus Sans L Bold"
       x="-44.142151"
       y="232.25868"
       id="text5761"
       sodipodi:linespacing="125%"><tspan
         sodipodi:role="line"
         x="-44.142151"
         y="232.25868"
         id="tspan8916"
         style="fill:#ff5555" /></text>
    <path
       sodipodi:type="arc"
       style="color:#000000;fill:none;stroke:#000000;stroke-width:0.72833276;stroke-linecap:butt;stroke-linejoin:miter;stroke-miterlimit:4;stroke-opacity:1;stroke-dasharray:none;stroke-dashoffset:0;marker:none;visibility:visible;display:inline;overflow:visible;enable-background:accumulate"
       id="path6605-2-8-3-4"
       sodipodi:cx="507.8663"
       sodipodi:cy="193.60768"
       sodipodi:rx="101.45743"
       sodipodi:ry="74.32692"
       d="m 609.32373,193.60768 c 0,41.04963 -45.42404,74.32692 -101.45743,74.32692 -56.03339,0 -101.45743,-33.27729 -101.45743,-74.32692 0,-41.04962 45.42404,-74.32692 101.45743,-74.32692 56.03339,0 101.45743,33.2773 101.45743,74.32692 z"
       transform="matrix(2.6305225,0,0,0.98100222,-990.23734,292.18185)" />
    <path
       sodipodi:type="arc"
       style="color:#000000;fill:none;stroke:#000000;stroke-width:0.72833276;stroke-linecap:butt;stroke-linejoin:miter;stroke-miterlimit:4;stroke-opacity:1;stroke-dasharray:none;stroke-dashoffset:0;marker:none;visibility:visible;display:inline;overflow:visible;enable-background:accumulate"
       id="path6605-2-8-3-4-8"
       sodipodi:cx="507.8663"
       sodipodi:cy="193.60768"
       sodipodi:rx="114.11824"
       sodipodi:ry="100.30375"
       d="m 621.98454,193.60768 c 0,55.39623 -51.09247,100.30375 -114.11824,100.30375 -63.02576,0 -114.11824,-44.90752 -114.11824,-100.30375 0,-55.39623 51.09248,-100.303748 114.11824,-100.303748 63.02577,0 114.11824,44.907518 114.11824,100.303748 z"
       transform="matrix(2.6305225,0,0,0.98100222,-990.23734,292.18185)" />
    <path
       sodipodi:type="arc"
       style="color:#000000;fill:none;stroke:#000000;stroke-width:0.72833276;stroke-linecap:butt;stroke-linejoin:miter;stroke-miterlimit:4;stroke-opacity:1;stroke-dasharray:none;stroke-dashoffset:0;marker:none;visibility:visible;display:inline;overflow:visible;enable-background:accumulate"
       id="path6605-2-8-3-4-8-7"
       sodipodi:cx="507.8663"
       sodipodi:cy="193.60768"
       sodipodi:rx="125.81139"
       sodipodi:ry="125.52179"
       d="m 633.6777,193.60768 c 0,69.32377 -56.32768,125.52179 -125.8114,125.52179 -69.48371,0 -125.81139,-56.19802 -125.81139,-125.52179 0,-69.32377 56.32768,-125.521788 125.81139,-125.521788 69.48372,0 125.8114,56.198018 125.8114,125.521788 z"
       transform="matrix(2.6305225,0,0,0.98100222,-990.23734,292.18185)" />
    <path
       sodipodi:type="arc"
       style="color:#000000;fill:none;stroke:#000000;stroke-width:0.72833276;stroke-linecap:butt;stroke-linejoin:miter;stroke-miterlimit:4;stroke-opacity:1;stroke-dasharray:none;stroke-dashoffset:0;marker:none;visibility:visible;display:inline;overflow:visible;enable-background:accumulate"
       id="path6605-2-8-3-4-8-7-0"
       sodipodi:cx="507.8663"
       sodipodi:cy="193.60768"
       sodipodi:rx="137.71104"
       sodipodi:ry="155.58862"
       d="m 645.57735,193.60768 c 0,85.92923 -61.65534,155.58862 -137.71105,155.58862 -76.05571,0 -137.71104,-69.65939 -137.71104,-155.58862 0,-85.92922 61.65533,-155.588622 137.71104,-155.588622 76.05571,0 137.71105,69.659402 137.71105,155.588622 z"
       transform="matrix(2.6305225,0,0,0.98100222,-990.23734,292.18185)" />
    <text
       xml:space="preserve"
       style="font-size:36px;font-style:italic;font-variant:normal;font-weight:bold;font-stretch:normal;text-indent:0;text-align:start;text-decoration:none;line-height:125%;letter-spacing:normal;word-spacing:normal;text-transform:none;direction:ltr;block-progression:tb;writing-mode:lr-tb;text-anchor:start;baseline-shift:baseline;color:#000000;fill:#000000;fill-opacity:1;fill-rule:nonzero;stroke:none;stroke-width:1.16999996;marker:none;marker-end:url(#Arrow1Send);visibility:visible;display:inline;overflow:visible;enable-background:accumulate;font-family:Nimbus Sans L;-inkscape-font-specification:Nimbus Sans L Bold Italic"
       x="-42.995853"
       y="225.15936"
       id="text8912"
       sodipodi:linespacing="125%"><tspan
         sodipodi:role="line"
         id="tspan8914"
         x="-42.995853"
         y="225.15936" /></text>
    <path
       sodipodi:type="arc"
       style="opacity:0.89830508;color:#000000;fill:#0197fd;fill-opacity:1;fill-rule:evenodd;stroke:#000000;stroke-width:4.32000017;stroke-miterlimit:4;stroke-dasharray:none;marker:none;visibility:visible;display:inline;overflow:visible;enable-background:accumulate"
       id="path5769-6"
       sodipodi:cx="785.22144"
       sodipodi:cy="230.38475"
       sodipodi:rx="17.537941"
       sodipodi:ry="17.537941"
       d="m 802.75938,230.38475 c 0,9.68594 -7.85201,17.53794 -17.53794,17.53794 -9.68594,0 -17.53795,-7.852 -17.53795,-17.53794 0,-9.68594 7.85201,-17.53794 17.53795,-17.53794 9.68593,0 17.53794,7.852 17.53794,17.53794 z"
       transform="translate(-164.20848,167.26399)" />
    <path
       sodipodi:type="arc"
       style="opacity:0.89830508;color:#000000;fill:#0197fd;fill-opacity:1;fill-rule:evenodd;stroke:#000000;stroke-width:4.32000017;stroke-miterlimit:4;stroke-dasharray:none;marker:none;visibility:visible;display:inline;overflow:visible;enable-background:accumulate"
       id="path5769-5"
       sodipodi:cx="785.22144"
       sodipodi:cy="230.38475"
       sodipodi:rx="17.537941"
       sodipodi:ry="17.537941"
       d="m 802.75938,230.38475 c 0,9.68594 -7.85201,17.53794 -17.53794,17.53794 -9.68594,0 -17.53795,-7.852 -17.53795,-17.53794 0,-9.68594 7.85201,-17.53794 17.53795,-17.53794 9.68593,0 17.53794,7.852 17.53794,17.53794 z"
       transform="translate(-92.05607,256.32712)" />
    <path
       sodipodi:type="arc"
       style="opacity:0.89830508;color:#000000;fill:#0197fd;fill-opacity:1;fill-rule:evenodd;stroke:#000000;stroke-width:4.32000017;stroke-miterlimit:4;stroke-dasharray:none;marker:none;visibility:visible;display:inline;overflow:visible;enable-background:accumulate"
       id="path5769-9"
       sodipodi:cx="785.22144"
       sodipodi:cy="230.38475"
       sodipodi:rx="17.537941"
       sodipodi:ry="17.537941"
       d="m 802.75938,230.38475 c 0,9.68594 -7.85201,17.53794 -17.53794,17.53794 -9.68594,0 -17.53795,-7.852 -17.53795,-17.53794 0,-9.68594 7.85201,-17.53794 17.53795,-17.53794 9.68593,0 17.53794,7.852 17.53794,17.53794 z"
       transform="translate(-219.45018,360.04622)" />
    <path
       sodipodi:type="arc"
       style="opacity:0.89830508;color:#000000;fill:#0197fd;fill-opacity:1;fill-rule:evenodd;stroke:#000000;stroke-width:4.32000017;stroke-miterlimit:4;stroke-dasharray:none;marker:none;visibility:visible;display:inline;overflow:visible;enable-background:accumulate"
       id="path5769-3"
       sodipodi:cx="785.22144"
       sodipodi:cy="230.38475"
       sodipodi:rx="17.537941"
       sodipodi:ry="17.537941"
       d="m 802.75938,230.38475 c 0,9.68594 -7.85201,17.53794 -17.53794,17.53794 -9.68594,0 -17.53795,-7.852 -17.53795,-17.53794 0,-9.68594 7.85201,-17.53794 17.53795,-17.53794 9.68593,0 17.53794,7.852 17.53794,17.53794 z"
       transform="translate(-417.86933,389.35814)" />
    <path
       sodipodi:type="arc"
       style="opacity:0.89830508;color:#000000;fill:#0197fd;fill-opacity:1;fill-rule:evenodd;stroke:#000000;stroke-width:4.32000017;stroke-miterlimit:4;stroke-dasharray:none;marker:none;visibility:visible;display:inline;overflow:visible;enable-background:accumulate"
       id="path5769-6-8"
       sodipodi:cx="785.22144"
       sodipodi:cy="230.38475"
       sodipodi:rx="17.537941"
       sodipodi:ry="17.537941"
       d="m 802.75938,230.38475 c 0,9.68594 -7.85201,17.53794 -17.53794,17.53794 -9.68594,0 -17.53795,-7.852 -17.53795,-17.53794 0,-9.68594 7.85201,-17.53794 17.53795,-17.53794 9.68593,0 17.53794,7.852 17.53794,17.53794 z"
       transform="translate(-331.45684,122.62931)" />
    <text
       xml:space="preserve"
       style="font-size:24px;font-style:normal;font-variant:normal;font-weight:bold;font-stretch:normal;text-indent:0;text-align:start;text-decoration:none;line-height:125%;letter-spacing:normal;word-spacing:normal;text-transform:none;direction:ltr;block-progression:tb;writing-mode:lr-tb;text-anchor:start;baseline-shift:baseline;color:#000000;fill:#000000;fill-opacity:1;fill-rule:nonzero;stroke:none;stroke-width:1.16999996;marker:none;visibility:visible;display:inline;overflow:visible;enable-background:accumulate;font-family:Nimbus Sans L;-inkscape-font-specification:Nimbus Sans L Bold"
       x="334.74472"
       y="395.57156"
       id="text9707"
       sodipodi:linespacing="125%"><tspan
         sodipodi:role="line"
         id="tspan9709"
         x="334.74472"
         y="395.57156">optimal solution</tspan></text>
    <text
       xml:space="preserve"
       style="font-size:24px;font-style:normal;font-variant:normal;font-weight:bold;font-stretch:normal;text-indent:0;text-align:start;text-decoration:none;line-height:125%;letter-spacing:normal;word-spacing:normal;text-transform:none;direction:ltr;block-progression:tb;writing-mode:lr-tb;text-anchor:start;baseline-shift:baseline;color:#000000;fill:#000000;fill-opacity:1;fill-rule:nonzero;stroke:none;stroke-width:1.16999996;marker:none;visibility:visible;display:inline;overflow:visible;enable-background:accumulate;font-family:Nimbus Sans L;-inkscape-font-specification:Nimbus Sans L Bold"
       x="596.88959"
       y="431.97266"
       id="text9707-2"
       sodipodi:linespacing="125%"><tspan
         sodipodi:role="line"
         id="tspan9709-1"
         x="596.88959"
         y="431.97266">optimal</tspan><tspan
         sodipodi:role="line"
         x="596.88959"
         y="461.97266"
         id="tspan9804"> solution</tspan></text>
    <text
       xml:space="preserve"
       style="font-size:24px;font-style:normal;font-variant:normal;font-weight:bold;font-stretch:normal;text-indent:0;text-align:start;text-decoration:none;line-height:125%;letter-spacing:normal;word-spacing:normal;text-transform:none;direction:ltr;block-progression:tb;writing-mode:lr-tb;text-anchor:start;baseline-shift:baseline;color:#000000;fill:#000000;fill-opacity:1;fill-rule:nonzero;stroke:none;stroke-width:1.16999996;marker:none;visibility:visible;display:inline;overflow:visible;enable-background:accumulate;font-family:Nimbus Sans L;-inkscape-font-specification:Nimbus Sans L Bold"
       x="478.03372"
       y="570.25208"
       id="text9707-35"
       sodipodi:linespacing="125%"><tspan
         sodipodi:role="line"
         id="tspan9709-0"
         x="478.03372"
         y="570.25208">optimal solution</tspan></text>
    <text
       xml:space="preserve"
       style="font-size:24px;font-style:normal;font-variant:normal;font-weight:bold;font-stretch:normal;text-indent:0;text-align:start;text-decoration:none;line-height:125%;letter-spacing:normal;word-spacing:normal;text-transform:none;direction:ltr;block-progression:tb;writing-mode:lr-tb;text-anchor:start;baseline-shift:baseline;color:#000000;fill:#000000;fill-opacity:1;fill-rule:nonzero;stroke:none;stroke-width:1.16999996;marker:none;visibility:visible;display:inline;overflow:visible;enable-background:accumulate;font-family:Nimbus Sans L;-inkscape-font-specification:Nimbus Sans L Bold"
       x="277.14456"
       y="654.75305"
       id="text9707-6"
       sodipodi:linespacing="125%"><tspan
         sodipodi:role="line"
         id="tspan9709-3"
         x="277.14456"
         y="654.75305">optimal solution</tspan></text>
    <text
       xml:space="preserve"
       style="font-size:24px;font-style:normal;font-variant:normal;font-weight:bold;font-stretch:normal;text-indent:0;text-align:start;text-decoration:none;line-height:125%;letter-spacing:normal;word-spacing:normal;text-transform:none;direction:ltr;block-progression:tb;writing-mode:lr-tb;text-anchor:start;baseline-shift:baseline;color:#000000;fill:#000000;fill-opacity:1;fill-rule:nonzero;stroke:none;stroke-width:1.16999996;marker:none;visibility:visible;display:inline;overflow:visible;enable-background:accumulate;font-family:Nimbus Sans L;-inkscape-font-specification:Nimbus Sans L Bold"
       x="605.24329"
       y="531.59656"
       id="text9707-3-2"
       sodipodi:linespacing="125%"><tspan
         sodipodi:role="line"
         id="tspan9709-7-0"
         x="605.24329"
         y="531.59656">optimal solution</tspan></text>
    <path
       sodipodi:type="arc"
       style="opacity:0.89830508;color:#000000;fill:#0197fd;fill-opacity:1;fill-rule:evenodd;stroke:#000000;stroke-width:4.32000017;stroke-miterlimit:4;stroke-dasharray:none;marker:none;visibility:visible;display:inline;overflow:visible;enable-background:accumulate"
       id="path5769-6-8-5"
       sodipodi:cx="785.22144"
       sodipodi:cy="230.38475"
       sodipodi:rx="17.537941"
       sodipodi:ry="17.537941"
       d="m 802.75938,230.38475 c 0,9.68594 -7.85201,17.53794 -17.53794,17.53794 -9.68594,0 -17.53795,-7.852 -17.53795,-17.53794 0,-9.68594 7.85201,-17.53794 17.53795,-17.53794 9.68593,0 17.53794,7.852 17.53794,17.53794 z"
       transform="translate(-553.50485,96.849128)" />
    <path
       sodipodi:type="arc"
       style="opacity:0.89830508;color:#000000;fill:#0197fd;fill-opacity:1;fill-rule:evenodd;stroke:#000000;stroke-width:4.32000017;stroke-miterlimit:4;stroke-dasharray:none;marker:none;visibility:visible;display:inline;overflow:visible;enable-background:accumulate"
       id="path5769-6-8-6"
       sodipodi:cx="785.22144"
       sodipodi:cy="230.38475"
       sodipodi:rx="17.537941"
       sodipodi:ry="17.537941"
       d="m 802.75938,230.38475 c 0,9.68594 -7.85201,17.53794 -17.53794,17.53794 -9.68594,0 -17.53795,-7.852 -17.53795,-17.53794 0,-9.68594 7.85201,-17.53794 17.53795,-17.53794 9.68593,0 17.53794,7.852 17.53794,17.53794 z"
       transform="translate(-604.23702,180.27536)" />
    <text
       xml:space="preserve"
       style="font-size:24px;font-style:normal;font-variant:normal;font-weight:bold;font-stretch:normal;text-indent:0;text-align:start;text-decoration:none;line-height:125%;letter-spacing:normal;word-spacing:normal;text-transform:none;direction:ltr;block-progression:tb;writing-mode:lr-tb;text-anchor:start;baseline-shift:baseline;color:#000000;fill:#000000;fill-opacity:1;fill-rule:nonzero;stroke:none;stroke-width:1.16999996;marker:none;visibility:visible;display:inline;overflow:visible;enable-background:accumulate;font-family:Nimbus Sans L;-inkscape-font-specification:Nimbus Sans L Bold"
       x="110.44194"
       y="454.34497"
       id="text9707-7"
       sodipodi:linespacing="125%"><tspan
         sodipodi:role="line"
         id="tspan9709-8"
         x="110.44194"
         y="454.34497">optimal solution</tspan></text>
    <path
       sodipodi:type="arc"
       style="opacity:0.89830508;color:#000000;fill:#0197fd;fill-opacity:1;fill-rule:evenodd;stroke:#000000;stroke-width:4.32000017;stroke-miterlimit:4;stroke-dasharray:none;marker:none;visibility:visible;display:inline;overflow:visible;enable-background:accumulate"
       id="path5769-6-8-0"
       sodipodi:cx="785.22144"
       sodipodi:cy="230.38475"
       sodipodi:rx="17.537941"
       sodipodi:ry="17.537941"
       d="m 802.75938,230.38475 c 0,9.68594 -7.85201,17.53794 -17.53794,17.53794 -9.68594,0 -17.53795,-7.852 -17.53795,-17.53794 0,-9.68594 7.85201,-17.53794 17.53795,-17.53794 9.68593,0 17.53794,7.852 17.53794,17.53794 z"
       transform="translate(-714.72041,189.29441)" />
    <text
       xml:space="preserve"
       style="font-size:24px;font-style:normal;font-variant:normal;font-weight:bold;font-stretch:normal;text-indent:0;text-align:start;text-decoration:none;line-height:125%;letter-spacing:normal;word-spacing:normal;text-transform:none;direction:ltr;block-progression:tb;writing-mode:lr-tb;text-anchor:start;baseline-shift:baseline;color:#000000;fill:#000000;fill-opacity:1;fill-rule:nonzero;stroke:none;stroke-width:1.16999996;marker:none;visibility:visible;display:inline;overflow:visible;enable-background:accumulate;font-family:Nimbus Sans L;-inkscape-font-specification:Nimbus Sans L Bold"
       x="-26.3022"
       y="358.95688"
       id="text9707-70"
       sodipodi:linespacing="125%"><tspan
         sodipodi:role="line"
         id="tspan9709-82"
         x="-26.3022"
         y="358.95688">optimal</tspan><tspan
         sodipodi:role="line"
         x="-26.3022"
         y="388.95688"
         id="tspan15477">solution</tspan></text>
    <path
       sodipodi:type="arc"
       style="opacity:0.89830508;color:#000000;fill:#0197fd;fill-opacity:1;fill-rule:evenodd;stroke:#000000;stroke-width:4.32000017;stroke-miterlimit:4;stroke-dasharray:none;marker:none;visibility:visible;display:inline;overflow:visible;enable-background:accumulate"
       id="path5769-6-8-6-1"
       sodipodi:cx="785.22144"
       sodipodi:cy="230.38475"
       sodipodi:rx="17.537941"
       sodipodi:ry="17.537941"
       d="m 802.75938,230.38475 c 0,9.68594 -7.85201,17.53794 -17.53794,17.53794 -9.68594,0 -17.53795,-7.852 -17.53795,-17.53794 0,-9.68594 7.85201,-17.53794 17.53795,-17.53794 9.68593,0 17.53794,7.852 17.53794,17.53794 z"
       transform="translate(-748.1732,298.04024)" />
    <path
       sodipodi:type="arc"
       style="opacity:0.89830508;color:#000000;fill:#0197fd;fill-opacity:1;fill-rule:evenodd;stroke:#000000;stroke-width:4.32000017;stroke-miterlimit:4;stroke-dasharray:none;marker:none;visibility:visible;display:inline;overflow:visible;enable-background:accumulate"
       id="path5769-6-8-6-3"
       sodipodi:cx="785.22144"
       sodipodi:cy="230.38475"
       sodipodi:rx="17.537941"
       sodipodi:ry="17.537941"
       d="m 802.75938,230.38475 c 0,9.68594 -7.85201,17.53794 -17.53794,17.53794 -9.68594,0 -17.53795,-7.852 -17.53795,-17.53794 0,-9.68594 7.85201,-17.53794 17.53795,-17.53794 9.68593,0 17.53794,7.852 17.53794,17.53794 z"
       transform="translate(-626.416,320.58787)" />
    <path
       sodipodi:type="arc"
       style="opacity:0.89830508;color:#000000;fill:#0197fd;fill-opacity:1;fill-rule:evenodd;stroke:#000000;stroke-width:4.32000017;stroke-miterlimit:4;stroke-dasharray:none;marker:none;visibility:visible;display:inline;overflow:visible;enable-background:accumulate"
       id="path5769-6-8-6-9"
       sodipodi:cx="785.22144"
       sodipodi:cy="230.38475"
       sodipodi:rx="17.537941"
       sodipodi:ry="17.537941"
       d="m 802.75938,230.38475 c 0,9.68594 -7.85201,17.53794 -17.53794,17.53794 -9.68594,0 -17.53795,-7.852 -17.53795,-17.53794 0,-9.68594 7.85201,-17.53794 17.53795,-17.53794 9.68593,0 17.53794,7.852 17.53794,17.53794 z"
       transform="translate(-594.84932,384.84862)" />
    <path
       sodipodi:type="arc"
       style="opacity:0.89830508;color:#000000;fill:#0197fd;fill-opacity:1;fill-rule:evenodd;stroke:#000000;stroke-width:4.32000017;stroke-miterlimit:4;stroke-dasharray:none;marker:none;visibility:visible;display:inline;overflow:visible;enable-background:accumulate"
       id="path5769-6-8-6-38"
       sodipodi:cx="785.22144"
       sodipodi:cy="230.38475"
       sodipodi:rx="17.537941"
       sodipodi:ry="17.537941"
       d="m 802.75938,230.38475 c 0,9.68594 -7.85201,17.53794 -17.53794,17.53794 -9.68594,0 -17.53795,-7.852 -17.53795,-17.53794 0,-9.68594 7.85201,-17.53794 17.53795,-17.53794 9.68593,0 17.53794,7.852 17.53794,17.53794 z"
       transform="translate(-522.6969,354.40932)" />
    <g
       style="display:inline"
       transform="matrix(0.64831724,0,0,0.64831724,669.1504,381.63075)"
       id="g12258-0-3-6">
      <rect
         ry="10.564651"
         rx="8.1677914"
         y="-44.302505"
         x="-830.909"
         height="64.983803"
         width="132.66228"
         id="rect12256-8-6-4"
         style="color:#000000;fill:#ffffff;fill-opacity:1;fill-rule:evenodd;stroke:#000000;stroke-width:2.20229483;stroke-linecap:butt;stroke-linejoin:miter;stroke-miterlimit:4;stroke-opacity:1;stroke-dasharray:none;stroke-dashoffset:0;marker:none;visibility:visible;display:inline;overflow:visible;enable-background:accumulate" />
      <text
         sodipodi:linespacing="125%"
         id="text8924-4-9-5"
         y="5.1959977"
         x="-813.19708"
         style="font-size:48px;font-style:normal;font-variant:normal;font-weight:bold;font-stretch:normal;text-indent:0;text-align:start;text-decoration:none;line-height:125%;letter-spacing:normal;word-spacing:normal;text-transform:none;direction:ltr;block-progression:tb;writing-mode:lr-tb;text-anchor:start;baseline-shift:baseline;color:#000000;fill:#0197fd;fill-opacity:1;fill-rule:evenodd;stroke:none;stroke-width:5.24404192;marker:none;visibility:visible;display:inline;overflow:visible;enable-background:accumulate;font-family:Nimbus Sans L;-inkscape-font-specification:Nimbus Sans L Bold"
         xml:space="preserve"><tspan
           y="5.1959977"
           x="-813.19708"
           sodipodi:role="line"
           id="tspan16300-1-6-1">f = f*</tspan></text>
    </g>
  </g>
  <g
     inkscape:groupmode="layer"
     id="layer2"
     inkscape:label="Layer"
     style="display:inline"
     transform="translate(41.868474,-294.87515)">
    <g
       transform="matrix(0.64831724,0,0,0.64831724,87.71952,301.56918)"
       id="g9563" />
  </g>
</svg>
